<?xml version="1.0" encoding="utf-8"?>
<!-- Generator: Adobe Illustrator 25.0.1, SVG Export Plug-In . SVG Version: 6.00 Build 0)  -->
<svg version="1.1" id="Layer_1" xmlns="http://www.w3.org/2000/svg" xmlns:xlink="http://www.w3.org/1999/xlink" x="0px" y="0px"
	 viewBox="0 0 148.4 28.6" style="enable-background:new 0 0 148.4 28.6;" xml:space="preserve">
<style type="text/css">
	.st0{fill:#EA5254;}
</style>
<g>
	<path class="st0" d="M19,22.6h-4.8v-9.9h-1.6V9.3H19L19,22.6L19,22.6z"/>
	<path class="st0" d="M33.6,9.3v0.2l-4.7,13.1h-5.1l3.7-9.9h-6.7l-0.1-7.4h4.8l0.1,4.1L33.6,9.3L33.6,9.3z"/>
	<path class="st0" d="M44.8,22.6h-4.7l-0.6-2.7c-1.4,1.2-2.5,2-3.3,2.6s-1.2,0.8-1.4,0.8v-4.7l3.9-2.3l-0.6-3.6h-2.6V9.3h6.6
		L44.8,22.6z"/>
	<path class="st0" d="M53.8,12.6h-1.5v10h-4.8l0-10h-1.8V9.3h8L53.8,12.6L53.8,12.6z"/>
	<path class="st0" d="M61.7,22.6H57v-9.9h-1.6V9.3h6.4L61.7,22.6L61.7,22.6z"/>
	<path class="st0" d="M76.4,22.6h-13v-3.4h6.8l-0.1-6.5h-6.5V9.3H75l-0.1,9.9h1.5L76.4,22.6L76.4,22.6z"/>
	<path class="st0" d="M97.4,22.6h-4.8v-9.9h-7.9V9.3h12.7V22.6z M89.5,22.6h-4.8v-8h4.8V22.6z"/>
	<path class="st0" d="M105.5,17.1h-4.8v-4.4h-1.6V9.3h6.4V17.1z"/>
	<path class="st0" d="M120.2,22.6h-13v-3.4h6.8l-0.1-6.5h-6.5V9.3h11.4l-0.1,9.9h1.5L120.2,22.6L120.2,22.6z"/>
	<path class="st0" d="M135.8,22.6h-5.6l-2.8-4.9l-0.5-1.2l-1.2,6.1h-4.5l2.4-9L121,9.3h5.7l3,5.2l1.6-5.2h4.5l-3.2,8.1L135.8,22.6z"
		/>
</g>
</svg>
