<?xml version="1.0" encoding="utf-8"?>
<!-- Generator: Adobe Illustrator 25.0.1, SVG Export Plug-In . SVG Version: 6.00 Build 0)  -->
<svg version="1.1" id="Layer_1" xmlns="http://www.w3.org/2000/svg" xmlns:xlink="http://www.w3.org/1999/xlink" x="0px" y="0px"
	 viewBox="0 0 58.9 13" style="enable-background:new 0 0 58.9 13;" xml:space="preserve">
<style type="text/css">
	.st0{fill:#EA5254;}
</style>
<g>
	<path class="st0" d="M2.8,10.3V4.8L2.7,3.4h1.7l0.1,1.4v5.4H2.8z"/>
	<path class="st0" d="M5.6,4.7V1.7h1.6v3.1H5.6z M6.9,10.3l2.2-5.5H5.6V3.4h5.2v1.4l-2.2,5.4H6.9z"/>
	<path class="st0" d="M12,10.5l-0.6-1.4c0.6-0.2,1.1-0.4,1.5-0.7c0.4-0.3,0.7-0.6,0.9-1l0.6,0.9c-0.2,0.4-0.3,0.7-0.5,1
		s-0.4,0.5-0.7,0.7C12.8,10.2,12.5,10.3,12,10.5z M14.2,10.3l-0.5-2.7V5.5c0-0.3,0-0.5-0.1-0.6c-0.1-0.1-0.2-0.2-0.4-0.2l-0.8-0.1
		l0.2-1.3L14,3.5c0.5,0.1,0.8,0.2,1.1,0.5c0.2,0.3,0.3,0.7,0.3,1.3v2.3l0.4,2.7H14.2z"/>
	<path class="st0" d="M17.5,10.3V6.1c0-0.3,0-0.6,0.1-0.8c0.1-0.2,0.1-0.4,0.2-0.6h-1.1V3.4h3.6v1.3h-0.9c-0.1,0.2-0.2,0.4-0.2,0.7
		c0,0.3,0,0.5,0,0.7v4.1H17.5z"/>
	<path class="st0" d="M21.5,10.3V4.8l-0.1-1.4h1.7l0.1,1.4v5.4H21.5z"/>
	<path class="st0" d="M27.5,10.3V5.6c0-0.3-0.1-0.5-0.2-0.7c-0.1-0.1-0.3-0.2-0.6-0.2h-2.4V3.4h2.8c0.4,0,0.8,0.1,1.1,0.2
		S28.8,4,29,4.4s0.3,0.8,0.3,1.3v4.6H27.5z M24.3,10.3V9h5.7v1.3H24.3z"/>
	<path class="st0" d="M33.4,10.3V7l0.2-0.8h1.5V7v3.3H33.4z M37.4,10.3V5.6c0-0.3-0.1-0.5-0.2-0.7c-0.1-0.1-0.3-0.2-0.6-0.2h-3.1
		V3.4h3.6c0.4,0,0.8,0.1,1.1,0.2c0.3,0.2,0.6,0.4,0.7,0.7c0.2,0.3,0.3,0.8,0.3,1.3v4.6H37.4z"/>
	<path class="st0" d="M40.4,7.7V6.7V4.8l-0.1-1.4H42l0.1,1.4v1.9l0,0.8L40.4,7.7z"/>
	<path class="st0" d="M46.4,10.3V5.6c0-0.3-0.1-0.5-0.2-0.7c-0.1-0.1-0.3-0.2-0.6-0.2h-2.4V3.4h2.8c0.4,0,0.8,0.1,1.1,0.2
		c0.3,0.2,0.6,0.4,0.7,0.7s0.3,0.8,0.3,1.3v4.6H46.4z M43.2,10.3V9H49v1.3H43.2z"/>
	<path class="st0" d="M56.4,10.3h-1.8l-2.3-3.5l-1.1,3.5h-1.6l1.3-4.1l0.4-0.9l-1.1-1.8h1.7l1,1.6l0.9,1.3L54,5.2l0.5-1.8h1.6
		l-1.4,4.4L56.4,10.3z"/>
</g>
</svg>
