<?xml version="1.0" encoding="utf-8"?>
<!-- Generator: Adobe Illustrator 25.0.1, SVG Export Plug-In . SVG Version: 6.00 Build 0)  -->
<svg version="1.1" id="Layer_1" xmlns="http://www.w3.org/2000/svg" xmlns:xlink="http://www.w3.org/1999/xlink" x="0px" y="0px"
	 viewBox="0 0 595.28 841.89" style="enable-background:new 0 0 595.28 841.89;" xml:space="preserve">
<style type="text/css">
	.st0{fill:#EA5254;}
</style>
<g>
	<path class="st0" d="M324.95,248.08h-4.78v-9.92h-1.64v-3.37h6.43V248.08z"/>
	<path class="st0" d="M339.56,234.79v0.16l-4.67,13.14h-5.09l3.67-9.92h-6.73l-0.13-7.43h4.77l0.06,4.06H339.56z"/>
	<path class="st0" d="M350.71,248.08h-4.66l-0.57-2.68c-1.42,1.17-2.52,2.03-3.31,2.59c-0.79,0.56-1.24,0.84-1.37,0.84v-4.69
		l3.93-2.33l-0.65-3.65h-2.61v-3.37h6.63L350.71,248.08z"/>
	<path class="st0" d="M359.79,238.08h-1.49v10.01h-4.84l0.02-10.01h-1.75v-3.29h8.05V238.08z"/>
	<path class="st0" d="M367.68,248.08h-4.78v-9.92h-1.64v-3.37h6.43V248.08z"/>
	<path class="st0" d="M382.36,248.08h-12.95v-3.41h6.8l-0.11-6.51h-6.54v-3.37h11.4l-0.14,9.88h1.54V248.08z"/>
	<path class="st0" d="M403.33,248.08h-4.76v-9.92h-7.9v-3.37h12.66V248.08z M395.42,248.08h-4.75v-7.99h4.75V248.08z"/>
	<path class="st0" d="M411.43,242.54h-4.78v-4.38H405v-3.37h6.43V242.54z"/>
	<path class="st0" d="M426.1,248.08h-12.95v-3.41h6.8l-0.11-6.51h-6.54v-3.37h11.4l-0.14,9.88h1.54V248.08z"/>
	<path class="st0" d="M441.76,248.08h-5.61l-2.81-4.94l-0.52-1.19l-1.21,6.13h-4.55l2.44-9.04l-2.59-4.26h5.66l2.99,5.18l1.6-5.18
		h4.55l-3.17,8.09L441.76,248.08z"/>
</g>
</svg>
