<?xml version="1.0" encoding="iso-8859-1"?>
<!-- Generator: Adobe Illustrator 18.0.0, SVG Export Plug-In . SVG Version: 6.00 Build 0)  -->
<!DOCTYPE svg PUBLIC "-//W3C//DTD SVG 1.1//EN" "http://www.w3.org/Graphics/SVG/1.1/DTD/svg11.dtd">
<svg version="1.1" id="Capa_1" xmlns="http://www.w3.org/2000/svg" xmlns:xlink="http://www.w3.org/1999/xlink" x="0px" y="0px"
	 viewBox="0 0 418.405 418.405" style="enable-background:new 0 0 418.405 418.405;" xml:space="preserve">
<g>
	<path d="M355.709,78.301C316.493,60,264.462,49.921,209.202,49.921c-55.26,0-107.29,10.079-146.507,28.38
		C22.266,97.168,0,122.707,0,150.215c0,50.576,21.828,98.095,61.463,133.802c11.509,10.368,24.127,19.368,37.603,26.931
		c-0.136,1.128-0.212,2.256-0.212,3.377c0,30.369,48.471,54.158,110.349,54.158c61.878,0,110.349-23.789,110.349-54.158
		c0-1.122-0.076-2.25-0.212-3.377c13.475-7.563,26.093-16.563,37.603-26.931c39.635-35.707,61.463-83.225,61.463-133.802
		C418.405,122.707,396.139,97.168,355.709,78.301z M66.924,87.363c37.92-17.695,88.449-27.441,142.278-27.441
		c53.83,0,104.358,9.746,142.279,27.441c36.708,17.131,56.924,39.452,56.924,62.853c0,9.556-3.375,18.932-9.864,27.849
		c-11.475-19.322-34.451-36.598-65.71-49.202c-34.823-14.042-78.729-21.775-123.628-21.775s-88.805,7.733-123.628,21.775
		c-31.259,12.604-54.234,29.88-65.71,49.201C13.375,169.147,10,159.771,10,150.215C10,126.815,30.216,104.493,66.924,87.363z
		 M294.61,231.715l-16.753-23.263l45.136-7.165l18.591,16.095C327.292,223.222,311.496,228.028,294.61,231.715z M351.736,212.946
		l-23.957-20.741c-1.115-0.965-2.596-1.385-4.057-1.158l-55.451,8.802c-1.714,0.272-3.164,1.414-3.831,3.017
		c-0.668,1.602-0.456,3.436,0.558,4.844l18.85,26.175c-23.414,4.346-48.642,6.627-74.646,6.627c-25.236,0-49.747-2.142-72.573-6.241
		l45.56-2.485c1.6-0.087,3.061-0.936,3.93-2.282s1.039-3.028,0.458-4.522l-6.161-15.844c-0.778-2.001-2.748-3.297-4.893-3.182
		l-37.848,1.761c-2.183,0.102-4.047,1.608-4.603,3.722l-4.401,16.724c-0.407,1.546-0.05,3.193,0.96,4.432
		c0.12,0.147,0.248,0.287,0.383,0.418c-23.29-4.638-44.679-11.35-63.09-19.941c-17.078-7.97-30.582-17.064-40.145-26.867
		c20.543-40.221,96.29-69.114,182.424-69.114c86.134,0,161.881,28.894,182.424,69.114
		C382.111,195.954,368.692,205.005,351.736,212.946z M140.089,224.066l1.719-6.533l30.589-1.424l2.358,6.065L140.089,224.066z
		 M209.202,358.484c-52.999,0-97.977-19.198-100.251-42.324c30.393,15.027,64.643,23.022,100.251,23.022
		c35.608,0,69.859-7.995,100.251-23.022C307.18,339.286,262.201,358.484,209.202,358.484z M209.202,329.182
		c-95.755,0-175.937-61.017-194.929-142.044c10.611,13.076,26.956,24.975,48.422,34.992c39.217,18.301,91.248,28.38,146.507,28.38
		s107.291-10.079,146.507-28.38c21.466-10.018,37.811-21.917,48.422-34.992C385.139,268.165,304.957,329.182,209.202,329.182z"/>
	<path d="M148.603,171.58l-21.124-14.083c-0.912-0.607-2-0.898-3.092-0.83l-41.369,2.641c-2.542,0.162-4.555,2.209-4.676,4.752
		l-0.88,18.483c-0.07,1.463,0.505,2.882,1.572,3.884c0.932,0.875,2.158,1.354,3.422,1.354c0.184,0,0.368-0.01,0.553-0.03
		l63.373-7.041c2.088-0.232,3.809-1.746,4.306-3.788C151.184,174.881,150.351,172.746,148.603,171.58z M87.729,177.165l0.389-8.162
		l35.219-2.248l8.297,5.531L87.729,177.165z"/>
	<path d="M249.086,185.249l-34.327-24.645c-1.252-0.899-2.847-1.167-4.327-0.735l-29.926,8.802c-1.46,0.43-2.645,1.5-3.219,2.909
		c-0.575,1.409-0.476,3.003,0.268,4.331l12.323,22.004c0.891,1.591,2.567,2.557,4.361,2.557c0.196,0,0.393-0.012,0.59-0.035
		l51.931-6.161c2.049-0.243,3.738-1.719,4.253-3.717S250.762,186.452,249.086,185.249z M189.343,176.495l11.998-3.528l-7.058,12.351
		L189.343,176.495z M203.504,189.337l9.929-17.375l19.362,13.9L203.504,189.337z"/>
	<path d="M310.757,134.708c-0.976-1.181-2.443-1.833-3.968-1.814l-38.729,0.88c-2.071,0.047-3.898,1.366-4.596,3.317l-8.802,24.646
		c-0.571,1.6-0.291,3.38,0.743,4.727c0.951,1.238,2.42,1.955,3.965,1.955c0.137,0,0.273-0.006,0.41-0.017l64.254-5.281
		c1.856-0.152,3.474-1.324,4.197-3.04c0.725-1.716,0.435-3.692-0.752-5.128L310.757,134.708z M266.688,157.8l5.038-14.106
		l32.866-0.747l9.08,10.992L266.688,157.8z"/>
	<path d="M230.045,139.213c0-13.327-27.21-16.883-43.288-16.883c-16.078,0-43.288,3.556-43.288,16.883
		c0,13.326,27.21,16.882,43.288,16.882C202.835,156.095,230.045,152.539,230.045,139.213z M186.758,132.33
		c19.911,0,30.954,4.563,33.072,6.883c-2.118,2.319-13.161,6.882-33.072,6.882c-19.911,0-30.955-4.563-33.073-6.882
		C155.803,136.894,166.847,132.33,186.758,132.33z"/>
</g>
<g>
</g>
<g>
</g>
<g>
</g>
<g>
</g>
<g>
</g>
<g>
</g>
<g>
</g>
<g>
</g>
<g>
</g>
<g>
</g>
<g>
</g>
<g>
</g>
<g>
</g>
<g>
</g>
<g>
</g>
</svg>
