<?xml version="1.0" encoding="iso-8859-1"?>
<!-- Generator: Adobe Illustrator 18.0.0, SVG Export Plug-In . SVG Version: 6.00 Build 0)  -->
<!DOCTYPE svg PUBLIC "-//W3C//DTD SVG 1.1//EN" "http://www.w3.org/Graphics/SVG/1.1/DTD/svg11.dtd">
<svg version="1.1" id="Capa_1" xmlns="http://www.w3.org/2000/svg" xmlns:xlink="http://www.w3.org/1999/xlink" x="0px" y="0px"
	 viewBox="0 0 453.981 453.981" style="enable-background:new 0 0 453.981 453.981;" xml:space="preserve">
<g>
	<path d="M453.981,206.94c-0.395-38.175-16.361-74.205-46.267-104.435c0.256-2.613,0.385-5.3,0.385-7.986
		c0-15.596-4.236-31.333-13.702-31.333c-2.469,0-4.579,1.079-6.354,2.938l-0.001-0.005l-0.016,0.023
		c-0.949,0.998-8.811,12.474-8.811,12.474C337.42,49.513,283.573,33.531,227,33.531c-28.123,0-55.541,3.916-81.545,11.62
		c-2.475-1.491-5.196-2.449-8.182-2.612c-3.888-0.222-7.558,1.212-10.632,4.122c-1.886,1.786-3.5,4.105-4.89,6.757
		c-10.262,4.14-20.065,8.862-29.333,14.121C80.987,58.817,64.54,59.67,54.099,70.11l-36.52,36.521
		c-10.531,10.532-11.307,27.178-2.338,38.62C5.207,165.255,0,186.634,0,208.39c0,3.225,0.368,9.963,0.374,10.029
		C7.1,331.716,106.628,420.45,227,420.45c60.278,0,116.948-22.028,159.733-62.037c5.039-1.467,9.788-4.18,13.753-8.146
		l41.206-41.205c11.475-11.474,12.485-29.51,3.036-42.146c4.912-15.732,7.92-32.031,8.897-48.505
		C453.631,218.359,453.981,206.94,453.981,206.94z M398.099,94.519c0,10.536-2.1,17.65-3.702,20.417
		c-1.603-2.767-3.701-9.881-3.701-20.417c0-10.535,2.099-17.649,3.701-20.416C395.999,76.869,398.099,83.984,398.099,94.519z
		 M403.948,161.164c-5.003,19.074-20.658,38.936-30.283,49.798c-0.006-5.636,0.401-11.087,1.518-15.552
		c1.128-4.511,1.781-8.485,1.98-11.966c2.453-2.336,7.398-7.274,12.275-13.506c4.631-5.917,8.026-11.494,10.189-16.702
		C401.18,155.845,402.621,158.489,403.948,161.164z M105.752,314.005c6.507-2.127,15.638-6.593,26.996-15.871
		c-2.033,11.625-7.398,22.086-9.321,25.569C117.312,320.741,111.41,317.505,105.752,314.005z M143.462,286.669
		c7.011-10.037,10.008-21.854,8.502-34.401c-0.863-7.196-3.57-11.891-8.044-13.951c-6.386-2.943-12.965,1.233-13.693,1.72
		c-2.298,1.531-2.918,4.636-1.387,6.934c1.531,2.298,4.636,2.919,6.934,1.387c0.68-0.453,2.926-1.436,3.962-0.958
		c0.768,0.354,1.831,2.153,2.3,6.061c1.702,14.185-3.815,27.278-15.535,36.867c-19.635,16.065-30.971,15.564-31.083,15.555
		l-2.331-0.458c-5.158-3.827-9.984-7.85-14.463-12.045c1.895,0.151,3.964,0.252,6.169,0.252c2.819,0,5.848-0.16,8.972-0.572
		c18.748-2.474,31.839-12.723,37.874-29.645c0.885-2.481-0.167-5.348-2.566-6.434c-2.712-1.228-5.824,0.149-6.788,2.892
		c-11.332,32.218-50.329,22.591-52.024,22.153c-0.843-0.221-2.095-0.681-3.449-1.06c-6.174-7.306-13.64-20.237-13.64-20.237
		c0.063-0.23,7.063-21.934,29.492-32.758c-1.936,4.542-2.957,8.913-3.294,12.294c-0.272,2.727,1.676,5.273,4.401,5.561
		c0.192,0.02,0.382,0.032,0.569,0.032c2.535,0,4.708-1.928,4.971-4.502c0.101-0.985,2.722-24.188,25.099-27.546
		c24.475-3.672,44.515,7.909,44.706,8.021c2.375,1.41,5.441,0.627,6.852-1.746c1.41-2.374,0.628-5.442-1.747-6.852
		c-0.35-0.208-3.692-2.159-9.211-4.295c2.519-2.604,6.161-5.642,10.842-7.626c7.696-3.278,16.169-2.83,25.207,1.332
		c0.982,0.452,2.016,0.784,3.086,0.934l0,0c0.907,0.127,1.829,0.151,2.736,0.022c1.524-0.216,3.123-0.315,4.757-0.308
		c10.41,0.089,21.061,4.66,27.107,7.761c-4.776,6.615-6.34,13.087-6.763,17.647l-57.842-5.479c-2.202-0.204-4.389,1.052-5.213,3.367
		c-0.187,0.525-0.259,1.086-0.259,1.643v0.597c-16.76-13.604-35.834-13.104-49.401-7.202c-15.058,6.546-16.505,20.888-15.167,27.557
		c0.477,2.376,2.563,4.018,4.897,4.018c0.326,0,0.657-0.032,0.989-0.099c2.708-0.543,4.462-3.179,3.919-5.886
		c-0.093-0.464-2.148-11.421,9.35-16.42c22.929-9.968,40.121,6.047,45.414,11.931v56.092l-11.245,18.073
		c-0.493,0.793-0.755,1.708-0.755,2.642v13.768c-4.798-1.664-9.5-3.484-14.103-5.447
		C135.907,321.698,144.448,304.112,143.462,286.669z M115.906,152.061c-0.419,0.655-0.8,1.407-1.119,2.27
		c-0.199,0.539-0.353,1.122-0.487,1.725c-1.259-0.294-2.553-0.524-3.879-0.686c0.043-3.284-0.48-5.988-1.603-8.193
		c-3.733-7.351-11.035-12.209-20.562-13.68c-6.829-1.055-14.248-0.246-21.435,2.264c10.883-12.897,24.601-24.395,40.719-34.092
		C103.241,114.149,108.253,138.499,115.906,152.061z M65.351,227.055c-0.74-0.643-1.359-1.425-1.813-2.319l-7.55-14.86
		c-1.012-1.994-3.225-3.069-5.421-2.642c-3.149,0.618-5.066,3.224-5.699,7.751c-0.219,1.581-1.192,2.929-2.603,3.604
		c-0.766,0.368-2.641,0.998-4.324-0.008c-0.708-0.426-1.276-0.833-1.732-1.211c-1.429-1.184-2.494-3.615-2.697-4.23
		c-2.729-8.285,2.854-19.336,13.718-26.532c1.367-0.905,2.806-1.743,4.275-2.491c6.797-3.453,14.157-4.952,20.732-4.218
		c6.227,0.693,10.998,3.241,13.607,7.225c0.261,0.398,2.846,4.269,0.842,7.803c-0.964,1.7-4.193,3.14-6.289,2.024
		c-5.045-2.698-8.051-1.461-9.681,0.056c-1.635,1.519-2.066,3.938-1.055,5.928l7.545,14.851c0.234,0.463,0.408,0.943,0.544,1.431
		C72.996,221.549,68.888,224.224,65.351,227.055z M64.845,147.448c7.247-3.685,15.019-5.127,21.886-4.068
		c6.258,0.967,10.936,3.923,13.174,8.33c0.149,0.293,0.555,1.342,0.515,3.667c-4.54,0.542-9.417,1.643-14.087,3.903
		c-7.249,3.509-11.83,6.891-15.515,10.491c-7.794-0.361-16.163,1.529-23.845,5.434c-0.142,0.072-0.28,0.156-0.421,0.229
		C44.328,166.136,52.016,153.964,64.845,147.448z M86.127,213.266l-2.924-5.756c1.395-0.055,2.774-0.317,4.097-0.768l3.796,7.467
		c-1.393,0.38-2.74,0.793-4.054,1.228C86.784,214.696,86.483,213.969,86.127,213.266z M99.419,208.515l-4.219-8.299
		c0.979-1.743,1.593-3.693,1.771-5.727c0.382-4.435-0.106-7.919-1.495-10.656c-2.522-4.96-6.784-8.816-12.215-11.237
		c2.058-1.362,4.498-2.771,7.495-4.345c4.608-1.977,9.462-3.076,14.057-3.183c3.455-0.075,6.701,0.397,9.523,1.383
		c0.754,5.066,2.321,10.732,4.214,16.313c-0.519-0.081-1.032-0.238-1.514-0.495c-4.05-2.142-7.297-2.119-9.65,0.067
		c-1.635,1.519-2.065,3.936-1.056,5.926l7.542,14.864c0.104,0.205,0.179,0.42,0.264,0.632c-0.404,0.054-0.806,0.099-1.213,0.16
		C107.716,204.7,103.245,206.331,99.419,208.515z M124.345,203.087c-0.315-1.547-0.828-3.057-1.557-4.489l-2.934-5.782
		c0.783-0.031,1.562-0.129,2.331-0.284c1.572,3.913,3.155,7.54,4.547,10.592C125.944,203.1,125.148,203.088,124.345,203.087z
		 M46.586,227.607c2.026-0.971,3.765-2.373,5.122-4.077l2.915,5.736c0.885,1.741,2.05,3.289,3.415,4.625
		c-5.361,5.856-8.723,11.677-10.708,15.917c-2.908-6.777-5.101-13.738-6.55-20.827C42.759,228.931,44.738,228.492,46.586,227.607z
		 M177.414,81.279c-0.056-4.595,0.723-13.436,4.927-18.122c1.892-2.109,4.345-3.188,7.498-3.296
		c14.615-0.471,18.175,23.459,18.209,23.694c0.223,1.594,1.199,2.982,2.623,3.732c1.424,0.751,3.123,0.77,4.562,0.051
		c4.554-2.272,7.112-1.287,8.642-0.347c9.675,5.941,14.304,33.53,15.511,54.671c-1.707-1.081-3.458-2.136-5.261-3.153
		c-1.598-0.901-3.562-0.856-5.115,0.119c-1.554,0.975-2.45,2.723-2.333,4.554c0.375,5.878,0.903,12.234,1.715,18.833l-8.354-0.243
		c1.588-26.451-18.864-76.661-19.745-78.807c-1.048-2.556-3.968-3.775-6.523-2.729c-2.555,1.048-3.776,3.969-2.729,6.523
		c0.208,0.506,20.673,50.742,18.995,74.721l-3.087-0.089c-1.067-19.46-4.265-25.121-7.058-27.784
		c-0.677-0.646-1.418-1.168-2.204-1.561c-0.319-1.168-0.667-2.481-1.044-3.898C191.942,110.443,186.267,91.379,177.414,81.279z
		 M276.602,76.81c1.064,1.457,2.832,2.23,4.621,2.017c0.696-0.082,1.39-0.032,2.072,0.148c3.019,0.796,4.826,3.9,4.029,6.926
		c-0.087,0.332-0.212,0.649-0.358,0.957c-7.561,1.724-13.704,5.573-17.181,10.63c-1.783-0.239-3.601-0.38-5.444-0.419
		c0.067-0.216,0.146-0.426,0.204-0.646c0.703-2.67-0.892-5.405-3.563-6.107c-2.674-0.702-5.405,0.893-6.107,3.563
		c-0.385,1.461-1.316,2.685-2.623,3.445c-1.31,0.762-2.835,0.966-4.291,0.584c-3.025-0.802-4.837-3.909-4.029-6.958
		c0.15-0.584,0.414-1.155,0.783-1.698c0.771-1.134,1.042-2.534,0.751-3.874c-0.292-1.34-1.12-2.502-2.293-3.213
		c-2.133-1.293-3.178-3.878-2.539-6.288c0.64-2.424,2.833-4.153,5.333-4.207c1.332-0.029,2.598-0.588,3.517-1.554
		c0.918-0.966,1.412-2.259,1.374-3.59c-0.017-0.559,0.046-1.107,0.188-1.643c0.385-1.462,1.316-2.686,2.624-3.446
		c1.306-0.762,2.829-0.967,4.288-0.585c1.702,0.452,2.7,1.497,3.238,2.295c1.5,2.225,4.491,2.866,6.772,1.457
		c1.347-0.833,2.919-1.07,4.439-0.669c1.462,0.385,2.686,1.316,3.445,2.623c0.762,1.308,0.968,2.834,0.581,4.304
		c-0.072,0.273-0.183,0.57-0.347,0.933C275.341,73.437,275.538,75.353,276.602,76.81z M380.701,93.796
		c-0.002,0.241-0.006,0.482-0.006,0.723c0,9.941,1.725,19.933,5.424,25.877l-13.024,8.763c-0.006-7.342-0.7-14.871-2.121-21.551
		L380.701,93.796z M365.482,192.984c-0.502,2.009-0.878,4.169-1.158,6.419c-2.387,2.632-5.106,3.45-8.481,2.531
		c-2.667-0.726-5.412,0.848-6.137,3.514c-0.724,2.665,0.849,5.412,3.514,6.137c1.785,0.485,3.534,0.725,5.229,0.725
		c1.81,0,3.558-0.276,5.229-0.815c0.058,13.75,2.308,27.847,3.291,33.363c-0.355,0.496-0.687,1.01-0.99,1.546
		c-4.99,8.828-11.728,11.377-20.256,14.604c-1.577,0.597-3.182,1.203-4.807,1.861c-1.104,0.447-2.161,0.979-3.169,1.581
		c-1.572-6.043-4.397-15.927-8.474-26.527c3.208-6.12,12.582-24.389,17.113-37.416c0.313-0.901,0.362-1.873,0.142-2.801
		c-2.674-11.23,7.002-19.987,15.016-21.991c2.186-0.548,3.868-0.498,4.496,0.13C366.347,176.15,368.923,179.222,365.482,192.984z
		 M202.124,287.374l0.443-50.47l19.802,1.876l4.281,50.803L202.124,287.374z M168.667,284.822v-51.129l23.907,2.265l-0.443,50.517
		L168.667,284.822z M207.281,171.406l22.561,0.656c1.646,9.862,4.049,20,7.62,29.721c0.183,0.499-1.204,1.283-1.67,1.681
		c-5.428-3.005-16.67-8.464-28.867-9.85C207.146,188.562,207.41,180.26,207.281,171.406z M236.762,290.494l-0.848-10.068
		c5.175-4.479,16.591-16.977,16.753-40.196c0.019-2.761-2.204-5.015-4.966-5.034c-0.012,0-0.023,0-0.035,0
		c-2.745,0-4.979,2.216-4.999,4.966c-0.088,12.664-4.086,21.318-7.895,26.704c0,0-2.839-33.378-2.864-33.523l0.019-0.003
		c-0.021-0.118-1.804-11.357,9.671-21.664c4.828,10.186,11.216,19.588,19.721,27.297c-3.732,10.006-6.125,22.024-5.463,36.05
		c0.089,1.887,0.421,3.733,0.961,5.509l-7.814-0.002c-0.001,0-0.001,0-0.002,0c-1.986,0-3.784,1.176-4.581,2.996l-3.224,7.367
		L236.762,290.494z M254.4,311.242l-1.586,6.076l-2.585-15.983L254.4,311.242z M263.108,306.152l-6.576-15.619l6.494,0.002
		c0.57,0.539,1.168,1.054,1.797,1.539c6.802,5.237,14.129,11.49,19.235,15.957L263.108,306.152z M265.626,229.268
		c-19.63-19.595-25.798-49.939-28.224-76.933c26.977,18.543,40.513,45.317,44.65,54.733c-0.521,0.451-1.031,0.92-1.516,1.421
		C276.128,213.041,270.442,219.978,265.626,229.268z M276.67,107.2c0-6.041,9.033-11.34,19.33-11.34s19.33,5.299,19.33,11.34
		c0,4.422-5.045,8.675-12.053,10.44c-4.911-3.973-12.115-6.444-20.277-6.444c-1.633,0-3.224,0.104-4.77,0.294
		C277.363,110.321,276.67,108.869,276.67,107.2z M266.33,164.563c4.597,1.975,10.018,3.345,15.984,3.345
		c4.491,0,9.288-0.784,14.26-2.655l-14.147,20.951C278.396,179.608,273.093,172.078,266.33,164.563z M283,121.197
		c10.019,0,17,4.919,17,9.334c0,4.414-6.981,9.333-17,9.333s-17-4.919-17-9.333C266,126.115,272.981,121.197,283,121.197z
		 M301.774,144.538l0.792,6.111c-18.299,13.368-33.434,4.868-38.742,0.94l1.3-6.463c4.73,2.96,10.958,4.737,17.877,4.737
		C290.365,149.864,296.949,147.85,301.774,144.538z M311.649,142.926l-1.664-12.838c-0.04-1.326-0.256-2.615-0.636-3.856
		c4.51-1.649,8.294-4.099,11.042-7.088l2.67,6.882L311.649,142.926z M268.281,114.238c-5.252,2.406-9.212,6.083-11.083,10.476
		c-3.785-0.604-7.201-1.763-9.771-3.335c-0.447-3.094-0.981-6.254-1.619-9.396c3.26-2.644,9.386-4.942,17.453-4.942
		c1.153,0,2.288,0.061,3.41,0.158c0,0.001,0,0.001,0,0.002C266.67,109.614,267.226,111.994,268.281,114.238z M248.766,132.923
		c2.451,0.828,5.097,1.441,7.859,1.821c0.074,0.249,0.151,0.497,0.238,0.741l-3.339,16.601c-1.247-1.062-2.532-2.109-3.848-3.144
		C249.601,145.618,249.386,139.834,248.766,132.923z M290.905,202.289c-0.766-1.734-1.764-3.871-3.011-6.316l50.109-74.208
		c-0.159,2.494-0.24,5.006-0.24,7.496c0,15.479,3.044,31.825,9.568,39.242l-37.576,36.587c-3.011-1.943-6.478-3.179-10.18-3.552
		C296.61,201.236,293.679,201.508,290.905,202.289z M336.092,193.404c-0.034,1.693,0.091,3.398,0.395,5.102
		c-3.147,8.66-8.434,19.698-12.301,27.41c-2.228-4.752-4.702-9.407-7.421-13.692L336.092,193.404z M363.097,129.261
		c0,20.793-5.324,31.924-7.666,33.272c-2.342-1.349-7.667-12.478-7.667-33.272c0-20.796,5.325-31.925,7.667-33.271
		C357.771,97.337,363.097,108.467,363.097,129.261z M329.873,115.938l-5.328-13.735c-2.913-9.154-13.699-15.869-27.113-16.317
		c0.183-1.976-0.017-3.922-0.549-5.76c15.92,4.664,30.849,10.904,44.583,18.644L329.873,115.938z M230.967,73.32
		c-0.546,2.061-0.64,4.166-0.345,6.2c-0.493-0.376-0.995-0.73-1.513-1.049c-2.822-1.732-7.016-3.229-12.413-2.161
		c-0.457-1.705-1.062-3.669-1.843-5.734c5.724-0.266,11.495-0.348,17.244-0.235C231.626,71.281,231.242,72.276,230.967,73.32z
		 M156.667,320.959l13.24-21.28l7.789,42.001c-7.203-1.432-14.274-3.177-21.182-5.226L156.667,320.959z M188.146,343.529
		l-8.878-48.173l30.889,2.783l9.525,48.24C209.008,346.076,198.464,345.121,188.146,343.529z M229.893,346.469l-9.358-47.396
		l19.483,1.755c0,0,7.09,43.815,7.277,44.836C241.068,346.187,236.24,346.4,229.893,346.469z M263.436,316.222l24.396,2.187
		l-5.88,22.126c-8.688,1.941-16.855,3.302-25.906,4.297C256.211,344.123,263.436,316.222,263.436,316.222z M295.732,327.275
		c2.277,4.335,4.273,7.221,5.009,8.237c-2.633,0.825-5.292,1.602-7.971,2.335L295.732,327.275z M310.549,332.185
		c-0.411-0.662-0.921-1.429-1.558-2.335c-0.209-0.298-21.733-29.352-7.752-60.964c1.117-2.525-0.024-5.479-2.55-6.595
		c-2.524-1.118-5.479,0.023-6.595,2.55c-5.048,11.412-6.221,22.421-5.405,32.229c-4.683-4.022-10.338-8.741-15.766-12.921
		c-3.051-2.349-4.901-5.847-5.079-9.598c-1.429-30.294,13.093-50.035,21.875-59.105c2.833-2.926,6.785-4.368,10.854-3.959
		c3.98,0.401,7.486,2.545,9.617,5.882c13.738,21.511,21.187,54.899,21.26,55.234c0,0-1.142,2.643-1.644,4.106
		c-5.222,15.222-18.392,29.996-18.524,30.144c-1.845,2.053-1.678,5.213,0.374,7.06c0.955,0.859,2.151,1.283,3.343,1.283
		c1.368,0,2.731-0.559,3.719-1.655c0.596-0.662,14.654-16.404,20.548-33.587c1.22-3.557,3.918-6.405,7.405-7.816
		c1.553-0.629,3.086-1.208,4.593-1.778c9.17-3.469,18.651-7.056,25.423-19.036c3.759-6.647,18.58-6.173,30.627-4.125l-23.223,15.744
		c-5.287,3.585-8.974,8.99-10.379,15.221l-5.152,22.833c-7.827,6.357-16.451,12.198-25.774,17.396
		C331.211,323.732,321.095,328.334,310.549,332.185z M381.465,280.365c0.845-3.743,3.06-6.991,6.236-9.145l12.342-8.367
		c-5.509,9.34-12.438,18.239-20.605,26.496L381.465,280.365z M410.943,238.103c-3.711-0.763-8.366-1.553-13.268-1.971
		c-8.95-0.763-16.176-0.068-21.661,2.045c-0.543-3.558-1.164-8.17-1.633-13.204c2.955-2.855,9.116-9.075,15.787-17.421
		c9.021-11.287,15.576-22.148,19.606-32.432c3.669,10.845,5.556,22.035,5.556,33.269
		C415.33,218.424,413.854,228.399,410.943,238.103z M392.389,139.194c1.007,10.033-9.339,23.626-17.325,32.184
		c-0.549-0.97-1.192-1.845-1.951-2.604c-1.491-1.492-3.841-2.998-7.356-3.35c3.475-5.775,5.667-14.443,6.678-23.767l15.433-10.384
		C390.578,133.476,392.077,136.083,392.389,139.194z M373.445,86.784l-6.3,8.918c-2.833-5.951-6.711-9.774-11.715-9.774
		c-3.289,0-6.089,1.66-8.429,4.479c-18.322-10.409-38.656-18.251-60.559-23.362c-0.294-1.92-0.941-3.788-1.947-5.517
		c-2.105-3.619-5.495-6.198-9.539-7.263c-2.793-0.739-5.654-0.696-8.346,0.09c-1.755-1.48-3.833-2.569-6.097-3.171
		c-4.041-1.066-8.262-0.495-11.876,1.608c-3.121,1.816-5.462,4.59-6.731,7.908c-10.622-0.59-21.457-0.539-32.066,0.135
		c-6.442-9.265-14.401-11.181-20.348-10.97c-5.864,0.202-10.92,2.499-14.623,6.642c-2.612,2.923-4.318,6.507-5.432,10.102
		c-2.532,0.572-5.033,1.177-7.49,1.813c-1.861-4.77-4.539-10.439-8.106-15.263c23.424-6.385,47.991-9.63,73.157-9.63
		C281.521,43.531,333.326,58.863,373.445,86.784z M136.727,52.523c8.822,0.483,16.45,19.24,18.762,28.244
		c0.339,1.328,1.208,2.458,2.404,3.127c1.197,0.67,2.615,0.819,3.923,0.412c1.596-0.495,2.99-0.338,4.523,0.511
		c9.906,5.478,17.156,32.779,20.64,45.899c0.729,2.747,1.36,5.12,1.899,6.917c0.6,1.999,2.36,3.381,4.376,3.547
		c0.878,1.32,3.628,7.215,4.016,29.561c0.157,9.029-0.13,17.737-0.353,22.787c-0.472,0.05-0.944,0.103-1.408,0.169
		c-7.432-3.474-14.661-4.97-21.617-4.483c-17.218-33.687-32.477-120.972-32.632-121.87c-0.472-2.722-3.062-4.548-5.78-4.073
		c-2.721,0.472-4.544,3.06-4.073,5.78c0.631,3.643,15.001,85.828,32.401,122.322c-0.625,0.229-1.249,0.471-1.869,0.735
		c-8.577,3.637-14.381,9.792-17.325,13.535c-1.973-0.495-4.064-0.944-6.26-1.327c-1.864-3.906-5.723-12.268-9-21.13
		c-7.595-20.54-5.282-25.303-5.018-25.74c1.375-0.602,2.41-1.79,2.813-3.239c0.41-1.471,0.125-3.048-0.772-4.282
		c-7.872-10.824-13.065-36.888-9.109-45.718c0.724-1.616,1.333-1.677,1.563-1.699c2.556-0.256,4.502-2.407,4.502-4.976
		c0-4.098,0.469-13.565,2.229-23.063c2.544-13.732,6.076-18.767,7.955-20.546C134.911,52.603,135.962,52.486,136.727,52.523z
		 M113.883,86.674c-32.051,16.612-57.339,39.212-71.07,66.615c-1.041,2.077-3.324,7.015-4.712,10.036
		c-0.752,1.636-1.473,3.284-2.107,4.97c-2.488,6.614-4.329,13.414-5.549,20.245c-7.684,9.778-9.921,21.434-5.099,30.931
		c0.959,1.881,2.466,3.623,4.542,5.276c5.266,35.913,27.847,69,63.815,93.369C130.227,342.863,177.566,356.49,227,356.49
		c43.176,0,84.206-10.153,118.655-29.363c33.593-18.731,58.812-45.464,71.012-75.273l3.662-2.755
		c1.185-0.804,2.061-2.036,2.277-3.452c0.303-1.986-0.567-3.79-2.037-4.841c3.158-10.583,4.761-21.464,4.761-32.417
		c0-24.162-7.935-48.055-22.929-69.213c-0.019-0.324-0.029-0.651-0.061-0.971c-0.48-4.809-2.498-9.079-5.906-12.622
		c4.058-1.061,6.992-5.29,8.901-11.08c25.068,27.357,38.382,59.266,38.651,92.848c-0.015,3.35-0.117,6.713-0.311,10.005
		C437.524,304.102,342.694,373.24,227,373.24c-115.696,0-210.528-69.142-216.676-155.889c-0.189-3.222-0.295-6.507-0.314-9.741
		V207.6h-0.001C10.372,149.069,51.051,95.722,117.11,66.228C115.322,73.343,114.377,80.813,113.883,86.674z M24.65,113.7
		L61.17,77.18c5.829-5.828,14.5-7.093,21.587-3.836c-18.847,11.951-35.186,26.2-48.259,42.272
		c-5.135,6.313-9.712,12.852-13.73,19.573C17.569,128.121,18.849,119.502,24.65,113.7z M35.588,302.556
		c8.908,10.702,19.4,20.731,31.395,29.909C109.779,365.208,166.608,383.24,227,383.24c47.044,0,91.923-10.945,129.694-31.259
		c4.212,3.603,9.136,5.946,14.278,7.026C331.242,392.264,280.627,410.45,227,410.45C144.499,410.45,72.252,366.97,35.588,302.556z
		 M434.622,301.991l-41.206,41.206c-7.358,7.356-18.614,8.459-27.171,3.355c7.231-4.338,14.169-9.037,20.771-14.088
		c22.137-16.937,39.161-36.771,50.514-58.401C443.163,282.702,442.196,294.418,434.622,301.991z"/>
	<path d="M115,237.864c-2.761,0-5,2.238-5,5c0,5.434-3.991,12.631-9.704,17.503c-3.024,2.578-9.187,6.732-16.506,5.56
		c-2.776-0.444-4.702-1.567-6.06-3.533c-3.136-4.542-2.389-12.488-1.836-15.17c0.566-2.697-1.158-5.346-3.856-5.918
		c-2.703-0.575-5.355,1.153-5.929,3.854c-0.298,1.405-2.737,13.986,3.362,22.872c2.891,4.212,7.296,6.898,12.739,7.77
		c1.373,0.22,2.755,0.328,4.14,0.328c7.052,0,14.177-2.817,20.434-8.153C114.813,261.13,120,251.273,120,242.864
		C120,240.102,117.761,237.864,115,237.864z"/>
	<path d="M119.896,114.86c-2.083,1.813-2.302,4.971-0.489,7.054c2.771,3.186,6.284,6.282,10.157,8.956
		c0.867,0.599,1.856,0.885,2.836,0.885c1.587,0,3.149-0.754,4.119-2.159c1.569-2.272,0.999-5.387-1.274-6.956
		c-3.195-2.205-6.063-4.727-8.295-7.29C125.138,113.265,121.979,113.047,119.896,114.86z"/>
	<path d="M158.176,123.433c0.667,0.3,1.363,0.441,2.049,0.441c1.907,0,3.729-1.098,4.563-2.949
		c4.458-9.909,6.938-19.045,7.041-19.43c0.717-2.666-0.862-5.407-3.527-6.126c-2.665-0.715-5.409,0.861-6.128,3.526
		c-0.023,0.087-2.388,8.778-6.504,17.926C154.535,119.34,155.658,122.3,158.176,123.433z"/>
	<path d="M136.07,162.208c-1.834-2.063-4.994-2.25-7.059-0.415c-2.064,1.835-2.25,4.995-0.415,7.06
		c4.453,5.009,12.121,7.748,17.77,9.164c0.408,0.103,0.817,0.151,1.22,0.151c2.239,0,4.277-1.515,4.846-3.785
		c0.671-2.679-0.956-5.395-3.634-6.065C142.83,166.822,138.191,164.595,136.07,162.208z"/>
	<path d="M170.459,164.171c0.674,0.309,1.381,0.454,2.077,0.454c1.896,0,3.709-1.084,4.55-2.921
		c3.55-7.761,5.905-14.996,6.004-15.301c0.851-2.627-0.589-5.446-3.216-6.297c-2.631-0.853-5.447,0.59-6.297,3.217
		c-0.022,0.068-2.272,6.982-5.584,14.221C166.843,160.055,167.948,163.022,170.459,164.171z"/>
	<path d="M216.959,117.671c0.459,0.131,0.921,0.193,1.376,0.193c2.176,0,4.178-1.431,4.805-3.627l2.667-9.333
		c0.759-2.655-0.779-5.423-3.434-6.182c-2.656-0.758-5.423,0.778-6.182,3.434l-2.667,9.333
		C212.767,114.145,214.304,116.912,216.959,117.671z"/>
</g>
<g>
</g>
<g>
</g>
<g>
</g>
<g>
</g>
<g>
</g>
<g>
</g>
<g>
</g>
<g>
</g>
<g>
</g>
<g>
</g>
<g>
</g>
<g>
</g>
<g>
</g>
<g>
</g>
<g>
</g>
</svg>
