<?xml version="1.0" encoding="utf-8"?>
<!-- Generator: Adobe Illustrator 25.0.1, SVG Export Plug-In . SVG Version: 6.00 Build 0)  -->
<svg version="1.1" id="Layer_1" xmlns="http://www.w3.org/2000/svg" xmlns:xlink="http://www.w3.org/1999/xlink" x="0px" y="0px"
	 viewBox="0 0 120 61.3" style="enable-background:new 0 0 120 61.3;" xml:space="preserve">
<style type="text/css">
	.st0{fill:#E6007E;}
	.st1{fill:#F3D2E6;}
	.st2{fill:#CD3C8E;}
	.st3{fill:#742A36;}
	.st4{fill:#FFFFFF;}
	.st5{fill:#F2D4D3;}
	.st6{fill:#7B2610;}
</style>
<g>
	<g>
		<path class="st0" d="M26.5,26.6h2.1c0.1,0,0.2,0.1,0.2,0.2c0,0.1,0,0.2-0.1,0.3c-4.7,8.3-10.7,23.4-20,23.4
			c-1.6,0-2.1-0.5-2.1-0.8c0-0.2,0.2-0.4,0.5-0.4c0.1,0,0.2,0,0.2,0.1c0.4,0.5,1,0.7,1.7,0.7c6.7,0,13-14.3,16.7-22.8
			C25.9,26.8,26.1,26.6,26.5,26.6z M20.1,25.1c9.6-2.6,37.5-1,41.8-5.7c0.1,0.4,0.1,0.8,0.1,1.2c0,2.2-1.3,4.6-4.2,4.6H29.2
			c-6.9,0-16.7,0.5-16.7,8.5c0,2.5,1.8,4,3.3,4c1.1,0,2-0.8,2-2.6c0-0.1,0-0.2,0-0.4c0.7,0.1,1,0.5,1,1c0,1.5-1.3,2.3-2.8,2.3
			c-1.9,0-4-1.3-4-4.4C12,29,15.3,26.5,20.1,25.1z"/>
		<path class="st0" d="M35.3,35.9h1.8c0.3,0,0.5,0.1,0.5,0.3c0,0.1-0.1,0.2-0.1,0.3c-2.7,2.7-7.1,7.7-7.1,9.7c0,0.2,0.1,0.4,0.4,0.4
			c1,0,3.9-1.9,8.8-7.7l0.3,0.3c-4,4.9-7.7,8-9.5,8c-0.7,0-1-0.5-1-1.4c0-0.6,0.2-1.3,0.5-2c-1,1.1-2.9,3.2-4.5,3.2
			c-1.2,0-1.8-0.7-1.8-1.8c0-3.4,5.4-10.5,12.4-10.5c0.2,0,0.3,0.1,0.3,0.2c0,0.2-0.2,0.3-0.3,0.3c-5.3,0-10.9,9.4-10.9,10.8
			c0,0.3,0.1,0.5,0.3,0.5c1.8,0,4.6-3.5,6.1-5.3c1.1-1.6,2.5-3.3,3.7-5.1C35,36,35.1,35.9,35.3,35.9z"/>
		<path class="st0" d="M37.3,45c-0.3,0.7-0.5,1.1-0.5,1.4c0,0.2,0.1,0.2,0.2,0.2c0.3,0,0.8-0.3,1.4-0.7c1.5-1,3.9-3.2,7.1-7l0.3,0.3
			c-2.5,3.1-4.9,5.4-6.8,6.8c-0.9,0.6-1.9,1.2-2.6,1.2c-0.4,0-0.7-0.2-0.7-0.9c0-0.3,0.1-0.8,0.3-1.4c1.3-3.8,9.2-16.1,10.2-18
			c0.2-0.3,0.2-0.3,0.5-0.3c0.2,0,1.6-0.1,2.2-0.1c0.3,0,0.4,0,0.4,0.1c0,0.1-0.1,0.1-0.2,0.3C47.5,28.9,39.2,41.2,37.3,45z"/>
		<path class="st0" d="M52.9,35.9h1.8c0.3,0,0.5,0.1,0.5,0.3c0,0.1-0.1,0.2-0.1,0.3c-3.4,4.2-7,9.6-10.6,13.9
			c0.9-0.1,1.8-0.2,2.8-0.2c0.7,0,1.4,0.1,2.1,0.1c0.1,0,0.1,0.1,0.1,0.1c0,0.1-0.2,0.7-0.4,0.7C48.2,51,47.3,51,46.5,51
			c-0.9,0-1.8,0.1-2.7,0.2c-3.3,3.9-6.5,6.8-9.6,6.8c-0.9,0-1.3-0.3-1.3-0.9c0-1.7,3.8-5.1,9.7-6.4c2.2-3,3.7-5,5-6.9
			c-1.4,1.4-4.1,3.3-5.3,3.3c-0.4,0-0.7-0.3-0.7-0.9c0-2.2,4-7.9,5.3-10c0.1-0.2,0.2-0.3,0.4-0.3h1.8c0.3,0,0.5,0.1,0.5,0.3
			c0,0.1-0.1,0.2-0.1,0.3c-2,2.2-6.7,8.4-6.7,9.9c0,0.2,0.1,0.2,0.2,0.2c0.7,0,4.3-2.5,6.2-5.1c1-1.5,2-3.2,3.5-5.5
			C52.6,36,52.7,35.9,52.9,35.9z M34.5,57.5c2,0,4.9-2.8,7.5-6c-4.8,1.3-8.5,4.1-8.5,5.4C33.5,57.3,33.8,57.5,34.5,57.5z"/>
		<path class="st0" d="M64.3,35.9h1.8c0.3,0,0.5,0.1,0.5,0.3c0,0.1-0.1,0.2-0.1,0.3c-2.7,2.7-7.1,7.7-7.1,9.7c0,0.2,0,0.4,0.4,0.4
			c1.2,0,4.5-2.4,10.6-2.4c4.5,0,8.2,1.3,8.2,3c0,0.7-0.7,1.5-2.4,2.3c-0.8-1.7-3.4-4.3-8.1-4.3c-4.3,0-7.6,2-8.7,2
			c-0.8,0-1-0.7-1-1.4c0-0.6,0.2-1.3,0.6-2.1c-1,1.1-3,3.3-4.6,3.3c-1.2,0-1.8-0.7-1.8-1.8c0-3.4,5.4-10.5,12.4-10.5
			c0.2,0,0.3,0.1,0.3,0.2c0,0.2-0.2,0.3-0.3,0.3c-5.3,0-10.9,9.4-10.9,10.8c0,0.3,0.1,0.5,0.3,0.5c2,0,5.4-4.4,6.6-5.9
			c1-1.4,2.2-3,3.2-4.5C64.1,36,64.2,35.9,64.3,35.9z"/>
	</g>
	<g>
		<g>
			<g>
				<g>
					<path class="st1" d="M102.7,20.9l-0.6,4.5c-0.2,1.7-1.2,3.2-2.5,4.1L84,40.2l-1.4,1l-0.4,0.3l-1.7-1.5l11-18.9
						c0.6-1,1.6-1.8,2.8-2.1c2.5-0.6,6.8-1.6,7.3-1.2c0.1,0.1,0.2,0.2,0.3,0.3c0.2,0.3,0.3,0.7,0.5,1.1
						C102.6,20,102.7,20.9,102.7,20.9z"/>
					<path class="st2" d="M102.7,20.9l-0.6,4.5c-0.2,1.7-1.2,3.2-2.5,4.1L84,40.2l-1.4,1c-1-0.6,0.3-1.8,0.3-1.8s8-7.8,12.5-11.5
						c4.5-3.8,4.1-5.5,4.5-6.9c0.4-1.4,1.9-2.9,1.9-2.9c0.2,0.3,0.3,0.7,0.5,1.1C102.6,20,102.7,20.9,102.7,20.9z"/>
					<path class="st0" d="M102.7,20.9l-0.6,4.5c-0.2,1.7-1.2,3.2-2.5,4.1L84,40.2c-0.5-0.2-0.7-0.5-0.6-0.6
						c0.2-0.2,14.7-11.4,15.1-11.7c0.3-0.2,2.4-1.8,2.9-4.2c0.5-2.4,0.2-3,0.3-3.2c0.1-0.2,0.6-1.4,0.6-1.4c0,0,0,0,0.1-0.1
						C102.6,20,102.7,20.9,102.7,20.9z"/>
					<path class="st3" d="M82.4,36.8l-0.2,0l-3,4.8l0.4,0.1c0.6-0.1,1,0.4,0.7,1l0.2,0.1l4.5-3.4l0,0C85.3,37.9,83.9,36.6,82.4,36.8
						z"/>
					<path class="st2" d="M113.9,11.8c0,0-2.2,2.7-4.7,4.3c-2.5,1.6-1.8,1-5.4,2.3c0,0,0,0,0,0c-0.2,0.1-0.4,0.2-0.6,0.2l-0.5,0.1
						l-0.6-0.9l-1.3-0.4c0,0-0.7,0-0.5-0.5c0.1-0.2,0.3-0.9,0.8-2c0,0,0,0,0,0c0.8-2,2.1-5.1,3.2-7.1c0-0.1,0.1-0.2,0.1-0.2
						c0,0,0,0,0,0c1.5-2.8,2-2.7,2-2.7s0,0,0,0l0,0c0.2,0,1.4,0.1,1.7,0.7c0.1,0.1,0.1,0.3,0.1,0.4c0.1,0.5,0.1,0.8,0.1,0.8
						s0.2,0,0.5-0.1c0.6,0,1.4,0,1.8,0.3c0.1,0.1,0.2,0.2,0.3,0.3c0.1,0.2,0.2,0.5,0,1c0,0,0,0,0,0c0.5,0.4,1.2,0,1.2,0l0.1,0.3
						l0.3,0.6l0,0.1c0,0-0.1,1-0.7,1.6c0.1,0,0.3,0.1,0.4,0.1C113.1,11.4,113.9,11.8,113.9,11.8z"/>
				</g>
				<path class="st0" d="M108.2,6.9c0,0-2,1.9-3,3.8s-3.8,6.3-3.8,6.3s2.1-3.7,3-5.3c0.9-1.7,2-3.5,2.4-3.9
					C107.2,7.4,108.2,6.9,108.2,6.9z"/>
				<path class="st0" d="M112.5,9.4c0,0-0.8,1.2-3.1,3c-2.3,1.9-6.2,4.7-6.6,5.3c-0.4,0.6-0.4,0.6-0.4,0.6s1.5-1.5,4-3
					c2.6-1.5,5.4-4.3,5.4-4.3S112.4,10.1,112.5,9.4z"/>
				<path class="st0" d="M112,8.4c-2.1,2-7.8,6.3-8,6.4c0.1-0.1,0.6-0.7,2.6-2.3c2.1-1.7,4.2-4.1,4.2-4.1C111.3,8.8,112,8.4,112,8.4
					z"/>
				<path class="st3" d="M99.5,17.8c0,0,1.1-0.2,1.9,0.4c0.8,0.6,1,1.2,1,1.2l0.8-0.8c0,0,0.3-1-1.1-1.6c-1.4-0.6-2-0.3-2-0.3
					L99.5,17.8z"/>
				<path class="st4" d="M101.3,17.9c-0.5-0.1-1-0.2-1.5-0.1c-1.6,0.4-3.2,0.9-4.9,1.3c-1.1,0.2-2.2,0.7-2.9,1.7c-0.6,1-1.2,2-1.7,3
					c-1.9,3.7-6.8,11.9-7.1,12.6c0.1-0.2,0.8,0.4,0.8,0.5C84,36.8,95.6,24.8,96,24.4c0.3-0.3,0.6-0.6,0.9-1c0.7-0.8,1.3-1.6,1.9-2.5
					c0.4-0.6,0.7-1.2,1.1-1.8C100.2,18.7,100.9,18.4,101.3,17.9z"/>
				<path class="st4" d="M110.9,7.4c0,0.3-0.2,0.7-0.4,1c-0.7,0.9-1.6,1.5-2.5,2.2c-0.7,0.6-1.4,1.1-2.1,1.7c-1.1,0.9-2.1,1.8-2.9,3
					c0.8-1.4,1.5-2.7,2.3-4.1c0.3-0.6,0.7-1.2,1.1-1.8c0.3-0.4,0.6-0.8,0.9-1.1c0.3-0.3,0.6-0.6,0.9-0.9c0.2-0.2,0.4-0.4,0.6-0.5
					c0.6,0,1.4,0,1.8,0.3C110.7,7.1,110.8,7.3,110.9,7.4z"/>
				<path class="st4" d="M108.2,6c-0.2,0.3-0.5,0.5-0.7,0.7c-0.4,0.4-0.7,0.9-1.1,1.3c-0.3,0.3-0.5,0.6-0.8,1
					c-0.4,0.5-0.8,0.9-1.1,1.5c-0.3,0.6-0.7,1.3-1,1.9c-0.4,0.8-0.9,1.6-1.3,2.5c-0.3,0.7-0.6,1.4-1.2,1.9c0-0.2-0.1-0.4-0.1-0.6
					c0-0.2,0-0.5,0-0.8c0-0.2,0-0.3,0.1-0.5c0,0,0,0,0,0c0.8-2,2.1-5.1,3.2-7.1c0-0.1,0.1-0.2,0.1-0.2c0,0,0,0,0,0
					c0.2-0.4,0.5-0.7,0.7-1.1c0.4-0.6,0.8-1.2,1.4-1.6l0,0c0.2,0,1.4,0.1,1.7,0.7C108.1,5.8,108.1,5.9,108.2,6z"/>
				<path class="st4" d="M112.5,9.3c-0.2,0.2-0.4,0.4-0.4,0.5c-1.1,1.1-2.3,1.9-3.5,2.8c-2,1.4-3.9,3-5.7,4.5
					c1.3-1.9,2.8-3.6,4.6-4.9c0.7-0.5,1.4-1,2.1-1.4c0.8-0.5,1.6-1.1,2.3-1.7c0.1-0.1,0.2-0.2,0.4-0.3L112.5,9.3z"/>
				<path class="st4" d="M113.9,11.8c0,0-2.3,2.4-4.7,3.9c-2.5,1.6-1.7,1-5.3,2.4c0,0-0.2,0-0.2,0c-0.2,0,0-0.3-0.2-0.3
					c0.6-0.3,0.3-0.3,0.9-0.6c1-0.6,2.6-1.2,3.5-1.9c1-0.8,2-1.5,2.9-2.4c0.5-0.5,1-1.1,1.5-1.7c0,0,0,0,0.1-0.1
					C113.1,11.4,113.9,11.8,113.9,11.8z"/>
				<path class="st5" d="M80.4,39.9c0,0,1.1-0.7,1.8,0.2c0.7,0.8,0.5,1.1,0.5,1.1l1.7-1.3c0,0,0.1-1.4-1.3-2.1c-0.7-0.3-1.4,0-1.4,0
					L80.4,39.9z"/>
			</g>
			<path class="st5" d="M80.7,42.3c0.1,0.4-0.1,0.6-0.5,0.6c-0.4-0.1-0.8-0.4-1-0.8c-0.1-0.4,0.1-0.6,0.5-0.6
				C80.1,41.6,80.5,41.9,80.7,42.3z"/>
			<path class="st6" d="M80.4,42.3c0.1,0.2,0,0.4-0.3,0.3c-0.2,0-0.5-0.2-0.6-0.5c-0.1-0.2,0-0.4,0.3-0.3
				C80.1,41.8,80.3,42,80.4,42.3z"/>
		</g>
	</g>
	<path class="st0" d="M79.9,41.8c-0.1,0-0.2,0.1-0.4,0.3c-0.3,0.3-0.4,0.3-0.4,0.4c-0.1,0-0.2,0.1-0.2,0.1c-0.4,0.1-0.6,0.6-1.1,0.9
		c-0.5,0.4-0.8-0.1-1.3,0.3c-0.4,0.3-0.4,0.7-0.9,0.9c-0.1,0.1-0.3,0.1-0.5,0.1c-0.6,0.1-0.8,0-0.9,0.1c-0.2,0.1,0.1,1,2,4.2
		c1.1-0.3,2-0.9,2.2-1.5c0.2-0.6,0.1-1,0.1-1c0-0.2-0.1-0.3-0.1-0.6c0-0.2,0.1-0.3,0.1-0.4c0.1-0.1,0.2-0.1,0.3-0.2
		c0.1-0.1,0.2-0.2,0.2-0.9c0.1-0.6,0.1-0.6,0.1-0.8c0.1-0.1,0.3-0.3,0.4-0.4c0,0,0,0,0,0c0.2-0.2,0.3-0.3,0.3-0.4c0,0,0,0,0,0
		c0,0,0,0,0.1-0.1c0-0.1,0-0.3,0-0.3c0-0.3,0.3-0.3,0.3-0.5c0,0,0-0.1-0.1-0.1c-0.1-0.1-0.1-0.1-0.1-0.1
		C80.1,41.9,80,41.8,79.9,41.8z"/>
</g>
</svg>
